<svg width="52" height="52" viewBox="0 0 52 52" fill="none" xmlns="http://www.w3.org/2000/svg">
<g filter="url(#filter0_d_292_1693)">
<path d="M14 12.0055C14 10.8978 14.9205 10 16.0562 10H39.9438C41.0795 10 42 10.8978 42 12.0055V35.9945C42 37.1022 41.0795 38 39.9438 38H16.0562C14.9205 38 14 37.1022 14 35.9945V12.0055ZM20.5494 33.4395C21.7097 33.4395 22.6502 32.4989 22.6502 31.3386V22.8966C22.6502 21.7363 21.7097 20.7958 20.5494 20.7958C19.3891 20.7958 18.4485 21.7363 18.4485 22.8966V31.3386C18.4485 32.4989 19.3891 33.4395 20.5494 33.4395ZM20.5503 19.0685C22.015 19.0685 22.9268 18.099 22.9268 16.8845C22.9005 15.6438 22.0168 14.7005 20.5782 14.7005C19.1398 14.7005 18.2 15.6455 18.2 16.8845C18.2 18.099 19.1118 19.0685 20.5223 19.0685H20.5503ZM27.0441 33.4395C28.2012 33.4395 29.1392 32.5015 29.1392 31.3443V26.3783C29.1392 26.0002 29.1672 25.6222 29.2793 25.3527C29.582 24.5985 30.2733 23.8162 31.4353 23.8162C32.956 23.8162 33.5632 24.9748 33.5632 26.6758V31.3386C33.5632 32.4989 34.5038 33.4395 35.6641 33.4395C36.8244 33.4395 37.765 32.4989 37.765 31.3386V26.1875C37.765 22.3025 35.693 20.4965 32.928 20.4965C30.6985 20.4965 29.6993 21.7215 29.1392 22.5842V22.6181C29.1392 22.6236 29.1348 22.628 29.1293 22.628C29.1215 22.628 29.1168 22.6194 29.121 22.6128C29.127 22.6032 29.1331 22.5937 29.1392 22.5842C29.1392 21.5965 28.3385 20.7958 27.3508 20.7958H27.0857C25.9159 20.7958 24.9574 21.7692 24.9606 22.939C24.9671 25.3102 24.9562 29.0218 24.9477 31.3382C24.9435 32.4991 25.8832 33.4395 27.0441 33.4395Z" fill="url(#paint0_linear_292_1693)" shape-rendering="crispEdges"/>
</g>
<defs>
<filter id="filter0_d_292_1693" x="0" y="0" width="52" height="52" filterUnits="userSpaceOnUse" color-interpolation-filters="sRGB">
<feFlood flood-opacity="0" result="BackgroundImageFix"/>
<feColorMatrix in="SourceAlpha" type="matrix" values="0 0 0 0 0 0 0 0 0 0 0 0 0 0 0 0 0 0 127 0" result="hardAlpha"/>
<feOffset dx="-2" dy="2"/>
<feGaussianBlur stdDeviation="6"/>
<feComposite in2="hardAlpha" operator="out"/>
<feColorMatrix type="matrix" values="0 0 0 0 0.615686 0 0 0 0 0.0980392 0 0 0 0 0.0627451 0 0 0 0.2 0"/>
<feBlend mode="normal" in2="BackgroundImageFix" result="effect1_dropShadow_292_1693"/>
<feBlend mode="normal" in="SourceGraphic" in2="effect1_dropShadow_292_1693" result="shape"/>
</filter>
<linearGradient id="paint0_linear_292_1693" x1="19.5" y1="32" x2="44.3159" y2="21.4449" gradientUnits="userSpaceOnUse">
<stop stop-color="#9D1910"/>
<stop offset="0.520833" stop-color="#9D1910" stop-opacity="0.5"/>
<stop offset="1" stop-color="#9D1910" stop-opacity="0.96"/>
</linearGradient>
</defs>
</svg>
