<svg width="52" height="52" viewBox="0 0 52 52" fill="none" xmlns="http://www.w3.org/2000/svg">
<g filter="url(#filter0_d_292_1696)">
<path d="M28 10C31.8038 10 32.2784 10.014 33.7708 10.084C35.2618 10.154 36.2768 10.3878 37.17 10.735C38.094 11.0906 38.8724 11.5722 39.6508 12.3492C40.3627 13.0491 40.9135 13.8956 41.265 14.83C41.6108 15.7218 41.846 16.7382 41.916 18.2292C41.9818 19.7216 42 20.1962 42 24C42 27.8038 41.986 28.2784 41.916 29.7708C41.846 31.2618 41.6108 32.2768 41.265 33.17C40.9145 34.1049 40.3636 34.9517 39.6508 35.6508C38.9507 36.3624 38.1042 36.9133 37.17 37.265C36.2782 37.6108 35.2618 37.846 33.7708 37.916C32.2784 37.9818 31.8038 38 28 38C24.1962 38 23.7216 37.986 22.2292 37.916C20.7382 37.846 19.7232 37.6108 18.83 37.265C17.8953 36.9143 17.0485 36.3633 16.3492 35.6508C15.6372 34.9511 15.0863 34.1045 14.735 33.17C14.3878 32.2782 14.154 31.2618 14.084 29.7708C14.0182 28.2784 14 27.8038 14 24C14 20.1962 14.014 19.7216 14.084 18.2292C14.154 16.7368 14.3878 15.7232 14.735 14.83C15.0853 13.8951 15.6363 13.0482 16.3492 12.3492C17.0487 11.6369 17.8954 11.086 18.83 10.735C19.7232 10.3878 20.7368 10.154 22.2292 10.084C23.7216 10.0182 24.1962 10 28 10ZM28 17C26.1435 17 24.363 17.7375 23.0503 19.0503C21.7375 20.363 21 22.1435 21 24C21 25.8565 21.7375 27.637 23.0503 28.9497C24.363 30.2625 26.1435 31 28 31C29.8565 31 31.637 30.2625 32.9497 28.9497C34.2625 27.637 35 25.8565 35 24C35 22.1435 34.2625 20.363 32.9497 19.0503C31.637 17.7375 29.8565 17 28 17ZM37.1 16.65C37.1 16.1859 36.9156 15.7408 36.5874 15.4126C36.2593 15.0844 35.8141 14.9 35.35 14.9C34.8859 14.9 34.4408 15.0844 34.1126 15.4126C33.7844 15.7408 33.6 16.1859 33.6 16.65C33.6 17.1141 33.7844 17.5592 34.1126 17.8874C34.4408 18.2156 34.8859 18.4 35.35 18.4C35.8141 18.4 36.2593 18.2156 36.5874 17.8874C36.9156 17.5592 37.1 17.1141 37.1 16.65ZM28 19.8C29.1139 19.8 30.1822 20.2425 30.9698 21.0302C31.7575 21.8178 32.2 22.8861 32.2 24C32.2 25.1139 31.7575 26.1822 30.9698 26.9698C30.1822 27.7575 29.1139 28.2 28 28.2C26.8861 28.2 25.8178 27.7575 25.0302 26.9698C24.2425 26.1822 23.8 25.1139 23.8 24C23.8 22.8861 24.2425 21.8178 25.0302 21.0302C25.8178 20.2425 26.8861 19.8 28 19.8Z" fill="url(#paint0_linear_292_1696)" shape-rendering="crispEdges"/>
</g>
<defs>
<filter id="filter0_d_292_1696" x="0" y="0" width="52" height="52" filterUnits="userSpaceOnUse" color-interpolation-filters="sRGB">
<feFlood flood-opacity="0" result="BackgroundImageFix"/>
<feColorMatrix in="SourceAlpha" type="matrix" values="0 0 0 0 0 0 0 0 0 0 0 0 0 0 0 0 0 0 127 0" result="hardAlpha"/>
<feOffset dx="-2" dy="2"/>
<feGaussianBlur stdDeviation="6"/>
<feComposite in2="hardAlpha" operator="out"/>
<feColorMatrix type="matrix" values="0 0 0 0 0.615686 0 0 0 0 0.0980392 0 0 0 0 0.0627451 0 0 0 0.2 0"/>
<feBlend mode="normal" in2="BackgroundImageFix" result="effect1_dropShadow_292_1696"/>
<feBlend mode="normal" in="SourceGraphic" in2="effect1_dropShadow_292_1696" result="shape"/>
</filter>
<linearGradient id="paint0_linear_292_1696" x1="19.5" y1="32" x2="44.3159" y2="21.4449" gradientUnits="userSpaceOnUse">
<stop stop-color="#9D1910"/>
<stop offset="0.520833" stop-color="#9D1910" stop-opacity="0.5"/>
<stop offset="1" stop-color="#9D1910" stop-opacity="0.96"/>
</linearGradient>
</defs>
</svg>
