<svg width="52" height="52" viewBox="0 0 52 52" fill="none" xmlns="http://www.w3.org/2000/svg">
<g filter="url(#filter0_d_292_1679)">
<path fill-rule="evenodd" clip-rule="evenodd" d="M17 10C15.3431 10 14 11.3431 14 13V35C14 36.6569 15.3431 38 17 38H39C40.6569 38 42 36.6569 42 35V13C42 11.3431 40.6569 10 39 10H17ZM33.143 27.0945L35.6174 27.3959C36.6013 27.5206 37.3417 28.4039 37.3319 29.4534V31.2511C37.3319 32.4253 36.4162 33.4021 35.3154 33.3294C27.0056 32.7786 20.3519 25.6917 19.8356 16.8175C19.7674 15.6433 20.6831 14.6665 21.784 14.6665H23.4693C23.9477 14.6659 24.4097 14.853 24.7672 15.1921C25.1246 15.5313 25.3527 15.9989 25.4079 16.5058L25.6904 19.1244C25.7586 19.7583 25.5541 20.3817 25.1352 20.8286L24.7337 21.2568C23.8889 22.1579 23.66 23.5008 24.3306 24.5382C25.2805 26.0077 26.4591 27.2924 27.8143 28.3367C28.8949 29.1693 30.4035 28.9048 31.3365 27.9095L31.5453 27.6869C31.7523 27.4658 32.0037 27.2976 32.2804 27.195C32.5571 27.0925 32.852 27.0581 33.143 27.0945Z" fill="url(#paint0_linear_292_1679)" shape-rendering="crispEdges"/>
</g>
<defs>
<filter id="filter0_d_292_1679" x="0" y="0" width="52" height="52" filterUnits="userSpaceOnUse" color-interpolation-filters="sRGB">
<feFlood flood-opacity="0" result="BackgroundImageFix"/>
<feColorMatrix in="SourceAlpha" type="matrix" values="0 0 0 0 0 0 0 0 0 0 0 0 0 0 0 0 0 0 127 0" result="hardAlpha"/>
<feOffset dx="-2" dy="2"/>
<feGaussianBlur stdDeviation="6"/>
<feComposite in2="hardAlpha" operator="out"/>
<feColorMatrix type="matrix" values="0 0 0 0 0.615686 0 0 0 0 0.0980392 0 0 0 0 0.0627451 0 0 0 0.2 0"/>
<feBlend mode="normal" in2="BackgroundImageFix" result="effect1_dropShadow_292_1679"/>
<feBlend mode="normal" in="SourceGraphic" in2="effect1_dropShadow_292_1679" result="shape"/>
</filter>
<linearGradient id="paint0_linear_292_1679" x1="17.0625" y1="32.75" x2="44.8843" y2="19.6044" gradientUnits="userSpaceOnUse">
<stop stop-color="#9D1910"/>
<stop offset="0.53125" stop-color="#9D1910" stop-opacity="0.5"/>
<stop offset="0.984375" stop-color="#9D1910" stop-opacity="0.97549"/>
</linearGradient>
</defs>
</svg>
